<svg version="1.2" xmlns="http://www.w3.org/2000/svg" viewBox="0 0 2268 1134" width="250" height="125"><defs><clipPath clipPathUnits="userSpaceOnUse" id="cp1"><path d="m0 0h2268v1134h-2268z"/></clipPath></defs><style>.a{fill:#ff2e17}.b{fill:#06060c}.c{fill:#c4c4c7}</style><g clip-path="url(#cp1)"><path class="a" d="m124.6 372.7c5.4 10 11.5 22.4 18.6 37.1q10.5 22.1 21.9 47.8c7.7 17.1 15.2 34.6 22.6 52.5 7.5 17.9 14.5 34.8 21.1 50.5 6.5-15.7 13.6-32.6 21.1-50.5 7.4-17.9 14.9-35.4 22.6-52.5q11.4-25.7 21.9-47.8c7.1-14.7 13.2-27.1 18.6-37.1h63.4q4.5 31.4 8.3 70.3 3.8 38.9 6.7 81 2.9 42.1 5.4 84.4 2.4 42.3 4.2 79.6h-67.9q-1.3-45.9-3.6-100.1-2.2-54.1-6.7-109.2c-5.3 12.8-11.3 26.9-17.9 42.3-6.6 15.5-13 31-19.5 46.5q-9.6 23.2-18.6 44.3c-6 14.1-11.1 26.2-15.2 36.2h-48.7c-4.2-10-9.2-22.1-15.3-36.2q-8.9-21.1-18.5-44.3c-6.5-15.5-13-31-19.5-46.5-6.6-15.4-12.6-29.5-18-42.3q-4.4 55.1-6.7 109.2-2.2 54.2-3.5 100.1h-67.9q1.8-37.3 4.2-79.6 2.5-42.3 5.4-84.4 2.9-42.1 6.7-81 3.8-38.9 8.2-70.3zm514.6 307.1q-16.9 5-43.7 9.4-26.8 4.3-56.3 4.3-29.9 0-49.8-8.2-19.9-8.2-31.5-23-11.6-14.8-16.5-35.2-5-20.5-5-45.1v-133.3h66.6v125.1q0 32.8 8.5 47.3 8.5 14.6 31.7 14.6 7.1 0 15.2-0.7 8-0.7 14.3-1.6v-184.7h66.5zm156.4 12.7q-29-0.4-47.1-6.3-18.1-5.9-28.6-16.6-10.5-10.7-14.3-26-3.8-15.2-3.8-34.3v-263.5l66.5-10.9v260.7q0 9.1 1.4 16.4 1.3 7.3 5.1 12.3 3.8 5 11 8.2 7.1 3.2 19.2 4.1zm45.1-303.5l66.5-10.9v70.5h80v56.4h-80v84.2q0 21.4 7.4 34.1 7.4 12.8 29.7 12.8 10.7 0 22.1-2.1 11.4-2 20.8-5.7l9.4 52.8q-12.1 5-26.8 8.6-14.8 3.7-36.2 3.7-27.2 0-45.1-7.5-17.9-7.5-28.6-21-10.7-13.4-15-32.5-4.2-19.1-4.2-42.3z"/><path fill-rule="evenodd" class="b" d="m1193.5 694.4q-31.9 0-57.3-10-25.3-10-42.9-29.4-17.6-19.3-27-47.3-9.4-27.9-9.4-64.1 0-36.3 10.8-64.2 10.8-27.9 29.7-47.3 18.8-19.4 44.1-29.4 25.4-10 54.5-10 17.5 0 31.9 2.7 14.3 2.8 24.9 6.1 10.7 3.3 17.6 7.1 7 3.7 9.8 5.4l-15.1 42.9q-9.8-6.2-28-11.9-18.2-5.6-39.5-5.6-18.4 0-34.4 6.5-15.9 6.4-27.6 19.3-11.6 13-18.2 32.5-6.5 19.6-6.5 45.5 0 22.9 5.1 42 5.1 19.2 15.7 33.2 10.7 13.9 27 21.6 16.4 7.7 39.3 7.7 27.4 0 44.6-5.6 17.2-5.6 26.6-10.6l13.9 42.9q-4.9 3.3-13.3 6.7-8.4 3.3-19.8 6.4-11.5 3.2-25.8 5-14.3 1.9-30.7 1.9zm314.2-115.4q0 25.8-7.4 47.1-7.4 21.2-20.9 36.2-13.5 15-32.5 23.4-19 8.3-41.9 8.3-22.9 0-41.7-8.3-18.9-8.4-32.4-23.4-13.5-15-21-36.2-7.6-21.3-7.6-47.1 0-25.8 7.6-46.9 7.5-21 21.3-36 13.7-15 32.5-23.2 18.8-8.1 41.3-8.1 22.5 0 41.5 8.1 19 8.2 32.5 23.2 13.5 15 21.1 36 7.6 21.1 7.6 46.9zm-50.8 0q0-32.5-13.7-51.5-13.7-18.9-38.2-18.9-24.6 0-38.3 18.9-13.7 19-13.7 51.5 0 32.9 13.7 52.1 13.7 19.1 38.3 19.1 24.5 0 38.2-19.1 13.7-19.2 13.7-52.1zm217.3-63.3q-6.2-2.1-17-4.4-10.9-2.3-25.2-2.3-8.2 0-17.4 1.7-9.2 1.6-12.8 2.9v174.6h-49.5v-207.5q14.3-5.5 35.8-10.3 21.4-4.7 47.6-4.7 4.9 0 11.5 0.6 6.5 0.6 13.1 1.6 6.5 1.1 12.6 2.5 6.2 1.5 9.9 2.8zm28.6-103l49.5-8.3v65.8h76.1v42.1h-76.1v88.8q0 26.2 8.2 37.5 8.2 11.2 27.8 11.2 13.5 0 23.9-2.9 10.4-2.9 16.6-5.4l8.2 40q-8.6 3.7-22.5 7.7-13.9 4-32.8 4-22.9 0-38.2-6.3-15.3-6.2-24.3-18.1-9-11.9-12.7-28.8-3.7-16.8-3.7-38.5zm148.9 167.5q0-28.8 8.4-50.4 8.4-21.7 22.3-36.1 13.9-14.3 31.9-21.6 18-7.3 36.8-7.3 44.2 0 68.9 27.9 24.8 27.9 24.8 83.3 0 4.2-0.2 9.4-0.2 5.2-0.6 9.4h-141.2q2.1 26.2 18.2 40.6 16.2 14.4 46.9 14.4 18 0 32.9-3.4 14.9-3.3 23.5-7l6.6 41.2q-4.1 2.1-11.3 4.4-7.1 2.3-16.3 4.2-9.2 1.8-19.9 3.1-10.6 1.2-21.7 1.2-28.2 0-49.1-8.5-20.8-8.6-34.3-23.8-13.5-15.2-20.1-35.8-6.5-20.6-6.5-45.2zm143.6-22.5q0-10.4-2.9-19.8-2.8-9.4-8.4-16.3-5.5-6.8-13.5-10.8-7.9-3.9-19-3.9-11.4 0-20 4.3-8.6 4.4-14.6 11.5-5.9 7.1-9.2 16.2-3.2 9.2-4.5 18.8z"/><path class="c" d="m2075 863.5c-54.7 39-122.1 72.6-200 99.6-154.1-4-383.5-59.2-639-157.7 325.5 39.9 599.1 31.3 775.8-67.2 39.3 47.3 61.4 89.9 63.2 125.3z"/><path class="a" d="m920.7 258.8c42.1-12.1 85.2-23.2 129.1-33.1 596.9-135.1 1125.1-10.8 1179.8 277.6 21.8 114.8-34.8 238.3-148.4 353.9 8.4-46 3.8-92.1-12.4-137.3 112.4-76.5 177.1-128 160.3-216.5-16.8-88.5-251.6-186.3-587.5-164.6-222-85.3-486.4-94.6-720.9-80z"/></g></svg>